Patient4_TMGait_0pt6_02_left_43_EMG.mot
version=1
nRows=23
nColumns=33
inDegrees=no
endheader
time	1LAddLong	2LGlutMax	3LGlutMed	4LIliopsoas	5LSemiMemb	6LBicFemLong	7LRecFem	8LVastMed	9LVastLat	10LGasMed	11LTibAnt	12lTibPost	13LPeroneusLong	14LSol	15LExtDigLong	16LFlexDigLong	17RAddLong	18RGlutMax	19RGlutMed	20RIliopsoas	21RSemiMemb	22RBicFemLong	23RRecFem	24RVastMed	25RVastLat	26RGasMed	27RTibAnt	28RTibPost	29RPeroneusLong	30RSol	31RExtDigLong	32RFlexDigLong
53.335	0.003815	-0.12711	0.024719	0.009613	0.014954	-0.013733	0.15686	0.012817	0.005035	-0.093079	-0.016785	0.011139	-0.038147	0.060272	0.022583	-0.074615	0.082245	0.015717	0.022278	0.1149	-0.29388	0.19333	-0.093231	0.16861	0.33615	0.003967	-0.08728	-0.010681	0.026398	0.025024	-0.005798	0.002899
53.336	0.010681	-0.11276	0.008545	0.004883	0.014648	-0.035248	0.13443	0.014343	0.008545	-0.078125	-0.010376	0.00885	0.025482	0.23438	0.054016	0.46478	0.061493	-0.099182	0.17288	0.20874	-0.015259	0.25131	-0.098572	0.21698	0.30502	0.005646	-0.1236	0.002136	0.023956	0.043793	-0.00473	0.001678
53.337	0.005798	-0.1358	0.022736	0.005646	0.006409	-0.038757	0.14435	0.011749	0.018921	-0.047302	-0.023193	0.012207	0.060425	0.30868	0.10193	0.12421	0.029755	-0.087891	0.044708	0.18097	-0.39688	0.11765	0.036774	0.095062	0.013123	0.000153	-0.066071	-0.008392	0.04715	0.040894	-0.005798	0.007172
53.338	-0.003662	-0.12741	0.032654	0.005951	0.005341	-0.007019	0.13519	0.010071	0.016785	0.042267	0.031128	0.003357	0.062714	0.16419	0.10651	-0.27557	0.008087	-0.052948	-0.023041	0.10834	-0.57205	0.079651	0.11612	0.010376	-0.21683	0.006714	-0.028381	-0.00885	0.027924	0.060272	-0.002441	0.010376
53.339	0.003357	-0.16724	0.008392	0.011292	0.004578	0.018005	0.10941	0.005646	0.020142	0.096436	0.041656	0.018463	0.046539	-0.092621	0.10788	0.34088	-0.040283	-0.12909	-0.19211	0.028839	-0.035858	0.13458	0.091095	0.034637	-0.009613	0.005493	0.007935	-0.008545	0.009308	0.0354	-0.006409	0.003052
53.34	-0.004425	-0.18387	-0.05249	0.010223	0.003357	0.047913	0.11993	0.011292	0.014038	0.19318	0.052032	0.024719	0.072174	-0.29831	0.086975	0.31525	-0.12451	-0.20859	-0.37888	-0.05661	0.12589	0.14679	-0.013123	0.70435	0.30319	0.004578	0.011139	-0.003815	0.017242	0.044708	-0.003357	0.001984
53.341	0.000916	-0.22308	-0.094452	0.010681	0.00824	0.047302	0.092621	0.008392	0.016479	0.3743	0.088196	0.008698	0.062714	-0.44922	0.099182	0.11231	-0.11353	-0.2475	-0.29694	-0.10132	-0.15472	-0.063782	-0.097809	1.0194	0.69427	0.009003	0.094757	-0.01236	0.037231	0.045319	-0.005188	-0.002899
53.342	0.006104	-0.22339	-0.097351	0.006256	0.010529	0.021515	0.064087	0.009613	0.009003	0.56778	0.079346	0.005188	0.03067	-0.38193	0.10757	0.018311	-0.10513	-0.14786	0.31433	-0.074921	-0.47287	-0.19852	-0.13306	0.51834	0.9433	-0.003967	0.14725	-0.00885	0.062408	0.033722	-0.005341	-0.00885
53.343	0.000305	-0.24109	-0.11398	0.00473	0.007935	0.045013	0.041656	0.008392	0.005035	0.23056	0.003052	0.003967	0.075378	-0.32486	0.094299	-0.016632	-0.054169	-0.15869	0.47531	-0.019989	-0.5014	-0.23407	-0.039215	0.20966	0.55832	0.001831	0.15182	-0.004883	0.103	0.031128	0.000305	-0.004272
53.344	-0.002747	-0.24765	-0.12116	-0.007629	-0.001678	0.017242	0.018463	0.00824	0.010986	-0.18494	-0.002594	0.024567	0.0354	-0.2005	0.037689	-1.2193	-0.023193	-0.11368	0.26215	-0.04776	-0.54352	-0.23682	0.000305	-0.10773	0.12131	-0.001678	0.088501	-0.012665	0.17273	0.037384	-0.002441	0.001526
53.345	0.000916	-0.24551	-0.12726	-0.006409	-0.011444	-0.054626	0.003357	0.007629	0.005646	-0.12299	0.009003	0.016937	-0.020294	-0.089417	0.036621	-0.1149	-0.039825	-0.045471	0.17502	-0.076294	-0.18036	-0.16129	0.1326	-0.39551	-0.55649	0.000305	-0.24216	-0.005798	0.23514	0.026398	-0.001984	-0.000916
53.346	0.005035	-0.26855	-0.15305	0.00351	0.004578	-0.059967	-0.024719	0.006409	-0.010986	-0.20493	0.015106	-0.003815	-0.05661	0.012512	0.028381	0.80276	-0.026398	0.064087	0.37628	-0.040283	-0.18829	-0.084839	0.26504	-0.63736	-1.1095	0.001831	-0.15823	0.000305	0.28137	0.005798	-0.002899	-0.002594
53.347	0.005646	-0.23697	-0.14984	0.02182	0.005341	-0.024872	-0.043488	0.010071	-0.01297	-0.34347	0.001221	0.015411	0.001831	0.065155	0.012512	-0.82169	-0.024719	0.13184	0.4042	0.08194	-0.27802	-0.1088	0.13351	-0.67596	-1.3463	0.007782	-0.097961	-0.002747	0.233	0.020294	-0.003967	0.007324
53.348	0.015564	-0.26047	-0.15366	0.006256	0.016174	-0.034332	-0.077362	0.010071	-0.003815	-0.35782	-0.003357	0.021362	0.04837	0.0914	0.027924	0.073395	-0.02182	0.23987	0.28076	0.071564	-0.55512	-0.10117	0.065765	-0.80353	-1.3272	-0.001678	-0.056763	-0.002594	-0.22858	-0.015106	-0.00412	0.006866
53.349	0.008698	-0.2356	-0.17593	-0.003357	0.036316	-0.059662	-0.12787	0.00351	0.002289	-0.41321	-0.009766	0.041504	0.062408	-0.23926	-0.031281	0.5513	0.018311	0.25604	0.24185	0.033112	-0.65231	-0.053253	0.1442	-0.76172	-1.1201	0.001984	-0.026093	-0.001831	-0.32394	0.002136	-0.003204	0.000458
53.35	0.00885	-0.23972	-0.17914	0.001526	0.022736	-0.019379	-0.14755	-0.001831	-0.00885	-0.22064	0.002136	0.03952	0.045013	-0.31754	-0.10178	-0.22156	-0.007935	-0.002136	0.093689	0.001984	-0.53253	0.26443	0.09552	-0.3241	-0.73624	0.003357	0.002136	-0.003662	-0.1239	0.019531	-0.006104	0.005035
53.351	0.005341	-0.25192	-0.21637	0.000458	0.02594	-0.005188	-0.14725	0.004272	-0.014191	-0.11353	0.002136	0.029297	0.020142	-0.34882	-0.12512	0.41901	-0.051727	-0.22079	-0.010071	-0.031433	-0.35294	0.37506	-0.065002	0.05249	-0.28564	0.001526	0.002747	-0.000763	-0.04715	0.007782	-0.003662	-0.005035
53.352	0.00946	-0.26932	-0.23193	0.002899	0.014801	-0.009308	-0.16525	0.005035	-0.02121	-0.034637	0.008698	0.023499	-0.007172	-0.33341	-0.059052	0.005798	-0.069427	-0.34561	-0.096741	-0.036316	0.11643	0.19241	-0.22522	0.076904	0.044403	0.014496	-0.016937	-0.002289	-0.097504	-0.018005	-0.008545	-0.002747
53.353	0.001984	-0.27878	-0.23605	-0.011597	0.007324	-0.022125	-0.18082	0.006561	-0.022736	-0.15564	0.002289	0.016632	-0.019989	-0.17685	0.018311	-0.001984	-0.038757	-0.37506	-0.08606	-0.043488	0.05188	0.24506	-0.38376	-0.041809	0.1033	0.007477	-0.003357	-0.002747	-0.12268	0.000153	-0.005493	-0.003204
53.354	0.003357	-0.26367	-0.24933	0.016937	0.005493	-0.034943	-0.18234	0.003052	-0.026855	0.18494	0.003357	0.019531	-0.008087	0.12909	0.020447	-0.032349	0.012512	-0.44006	-0.17212	-0.009918	-0.20294	0.18204	-0.36896	-0.18845	-0.027771	0.004578	0.018311	-0.002594	-0.041199	0.01709	-0.005493	0.00061
53.355	0.01709	-0.30395	-0.25818	-0.002136	0.015564	0.011749	-0.19058	0.003662	-0.018616	0.38452	0.002747	0.020752	-0.006561	0.31937	-0.012054	-0.35584	0.03479	-0.4245	-0.12619	0.00473	-0.24353	-0.007172	-0.14893	-0.34027	-0.19516	0.004578	0.018158	-0.001831	0.033722	-0.005493	-0.003357	-0.006256
53.356	0.012665	-0.28381	-0.27054	0.019531	0.027313	0.019226	-0.21652	0.01297	-0.034332	0.025482	-0.000153	0.020447	0.015869	0.30411	-0.028381	-0.066376	0.094299	-0.41946	-0.047455	0.080109	-0.23941	-0.11597	0.11307	-0.3656	-0.32333	0.00824	0.028229	-0.000916	0.14786	-0.004578	-0.006256	-0.000916
53.357	0.012512	-0.29831	-0.30731	0.015869	0.015106	0.027924	-0.2269	0.007782	-0.045013	-0.062714	0.005646	0.026245	0.014954	0.19104	-0.023041	-0.20386	0.1413	-0.3183	0.14297	0.12741	-0.24963	-0.21973	0.095367	-0.43442	-0.22873	-0.001984	0.007019	-0.001068	0.18997	0.013275	-0.005188	-0.008392
